<?xml version="1.0" encoding="utf-8"?>
<!-- Generator: Adobe Illustrator 26.0.3, SVG Export Plug-In . SVG Version: 6.00 Build 0)  -->
<svg version="1.1" id="Capa_1" xmlns="http://www.w3.org/2000/svg" xmlns:xlink="http://www.w3.org/1999/xlink" x="0px" y="0px"
	 viewBox="0 0 24 24" style="enable-background:new 0 0 24 24;" xml:space="preserve">
<style type="text/css">
	.st0{fill:#FAFAFF;}
</style>
<path class="st0" d="M12,8c-2.2,0-4,1.8-4,4s1.8,4,4,4s4-1.8,4-4S14.2,8,12,8z M12,14c-1.1,0-2-0.9-2-2s0.9-2,2-2s2,0.9,2,2
	S13.1,14,12,14z M21.7,11.3L19.4,9V5.6c0-0.6-0.4-1-1-1h-3.3l-2.3-2.3c-0.4-0.4-1-0.4-1.4,0c0,0,0,0,0,0L9,4.6H5.6c-0.6,0-1,0.4-1,1
	V9l-2.3,2.3c-0.4,0.4-0.4,1,0,1.4c0,0,0,0,0,0l2.3,2.3v3.3c0,0.6,0.4,1,1,1H9l2.3,2.4c0.4,0.4,1,0.4,1.4,0c0,0,0,0,0,0l2.3-2.4h3.3
	c0.6,0,1-0.4,1-1v-3.3l2.4-2.3C22.1,12.3,22.1,11.7,21.7,11.3C21.7,11.3,21.7,11.3,21.7,11.3z M17.7,13.9c-0.2,0.2-0.3,0.4-0.3,0.7
	v2.7h-2.7c-0.3,0-0.5,0.1-0.7,0.3L12,19.6l-1.9-1.9c-0.2-0.2-0.4-0.3-0.7-0.3H6.6v-2.7c0-0.3-0.1-0.5-0.3-0.7L4.4,12l1.9-1.9
	c0.2-0.2,0.3-0.4,0.3-0.7V6.6h2.7c0.3,0,0.5-0.1,0.7-0.3L12,4.4l1.9,1.9c0.2,0.2,0.4,0.3,0.7,0.3h2.7v2.7c0,0.3,0.1,0.5,0.3,0.7
	l1.9,1.9L17.7,13.9z"/>
</svg>
