<?xml version="1.0" encoding="utf-8"?>
<!-- Generator: Adobe Illustrator 26.0.3, SVG Export Plug-In . SVG Version: 6.00 Build 0)  -->
<svg version="1.1" id="Capa_1" xmlns="http://www.w3.org/2000/svg" xmlns:xlink="http://www.w3.org/1999/xlink" x="0px" y="0px"
	 viewBox="0 0 24 24" style="enable-background:new 0 0 24 24;" xml:space="preserve">
<style type="text/css">
	.st0{fill:#FAFAFF;}
</style>
<path class="st0" d="M20.1,6.3H15v1.4h5.1L20.1,6.3z M19,16c-0.4,0.3-0.8,0.4-1.3,0.4c-0.6,0.1-1.2-0.1-1.7-0.5
	c-0.4-0.5-0.6-1.1-0.6-1.8H22c0-0.7,0-1.3-0.2-2c-0.2-0.6-0.4-1.2-0.8-1.7c-0.4-0.5-0.9-0.9-1.4-1.2c-0.6-0.3-1.3-0.5-2-0.4
	c-0.7,0-1.3,0.1-1.9,0.4c-0.6,0.2-1.1,0.6-1.5,1c-0.4,0.4-0.7,1-0.9,1.5c-0.2,0.6-0.3,1.3-0.3,1.9c0,0.7,0.1,1.3,0.3,1.9
	c0.2,0.6,0.5,1.1,0.9,1.5c0.4,0.4,0.9,0.8,1.5,1c0.6,0.2,1.3,0.4,1.9,0.3c0.9,0,1.8-0.2,2.6-0.7c0.8-0.6,1.4-1.4,1.6-2.4h-2.2
	C19.5,15.6,19.3,15.9,19,16z M15.6,11.9c0.2-0.5,0.5-0.9,1-1.1c0.3-0.1,0.7-0.2,1-0.2c0.5,0,1,0.1,1.4,0.5c0.3,0.4,0.6,0.9,0.6,1.4
	h-4.1C15.4,12.3,15.5,12.1,15.6,11.9L15.6,11.9z M10.3,11.4c0.5-0.2,1-0.6,1.3-1c0.3-0.5,0.5-1,0.4-1.6c0-0.5-0.1-1-0.3-1.5
	c-0.2-0.4-0.5-0.7-0.8-1C10.5,6.1,10.1,6,9.6,5.9C9.1,5.8,8.5,5.7,8,5.7H2v12.6h6.1c0.6,0,1.1-0.1,1.6-0.2c0.5-0.1,1-0.4,1.4-0.6
	c0.4-0.3,0.8-0.7,1-1.1c0.3-0.5,0.4-1.1,0.4-1.6c0-0.7-0.2-1.4-0.6-2C11.6,12,10.9,11.6,10.3,11.4L10.3,11.4z M4.8,7.9h2.6
	c0.2,0,0.5,0,0.7,0.1C8.3,8,8.5,8,8.7,8.1C8.9,8.2,9,8.4,9.1,8.6c0.1,0.2,0.2,0.5,0.2,0.7c0,0.4-0.1,0.9-0.5,1.1
	c-0.4,0.2-0.8,0.4-1.2,0.4H4.8V7.9z M9.6,15.3c-0.1,0.2-0.3,0.4-0.4,0.5C9,15.9,8.7,16,8.5,16.1c-0.3,0.1-0.5,0.1-0.8,0.1h-3v-3.4h3
	c0.5,0,1,0.1,1.4,0.4c0.4,0.4,0.6,0.9,0.5,1.4C9.7,14.8,9.7,15,9.6,15.3z"/>
</svg>
