<?xml version="1.0" encoding="utf-8"?>
<!-- Generator: Adobe Illustrator 26.0.3, SVG Export Plug-In . SVG Version: 6.00 Build 0)  -->
<svg version="1.1" id="Capa_1" xmlns="http://www.w3.org/2000/svg" xmlns:xlink="http://www.w3.org/1999/xlink" x="0px" y="0px"
	 viewBox="0 0 24 24" style="enable-background:new 0 0 24 24;" xml:space="preserve">
<style type="text/css">
	.st0{fill:#FAFAFF;}
</style>
<path class="st0" d="M19,7h-3V6c0-2.2-1.8-4-4-4S8,3.8,8,6v1H5C4.4,7,4,7.4,4,8v11c0,1.7,1.3,3,3,3h10c1.7,0,3-1.3,3-3V8
	C20,7.4,19.6,7,19,7z M10,6c0-1.1,0.9-2,2-2s2,0.9,2,2v1h-4V6z M18,19c0,0.6-0.4,1-1,1H7c-0.6,0-1-0.4-1-1V9h2v1c0,0.6,0.4,1,1,1
	s1-0.4,1-1V9h4v1c0,0.6,0.4,1,1,1s1-0.4,1-1V9h2V19z"/>
</svg>
