<?xml version="1.0" encoding="utf-8"?>
<!-- Generator: Adobe Illustrator 26.0.3, SVG Export Plug-In . SVG Version: 6.00 Build 0)  -->
<svg version="1.1" id="Capa_1" xmlns="http://www.w3.org/2000/svg" xmlns:xlink="http://www.w3.org/1999/xlink" x="0px" y="0px"
	 viewBox="0 0 24 24" style="enable-background:new 0 0 24 24;" xml:space="preserve">
<style type="text/css">
	.st0{fill:#FAFAFF;}
</style>
<path class="st0" d="M20,6h-4V5c0-1.7-1.3-3-3-3h-2C9.3,2,8,3.3,8,5v1H4C3.4,6,3,6.4,3,7s0.4,1,1,1h1v11c0,1.7,1.3,3,3,3h8
	c1.7,0,3-1.3,3-3V8h1c0.6,0,1-0.4,1-1S20.6,6,20,6z M10,5c0-0.6,0.4-1,1-1h2c0.6,0,1,0.4,1,1v1h-4V5z M17,19c0,0.6-0.4,1-1,1H8
	c-0.6,0-1-0.4-1-1V8h10V19z"/>
</svg>
