<?xml version="1.0" encoding="utf-8"?>
<!-- Generator: Adobe Illustrator 26.0.3, SVG Export Plug-In . SVG Version: 6.00 Build 0)  -->
<svg version="1.1" id="Capa_1" xmlns="http://www.w3.org/2000/svg" xmlns:xlink="http://www.w3.org/1999/xlink" x="0px" y="0px"
	 viewBox="0 0 24 24" style="enable-background:new 0 0 24 24;" xml:space="preserve">
<style type="text/css">
	.st0{fill:#FAFAFF;}
</style>
<path class="st0" d="M10.1,20.5c0-0.6-0.4-1-1-1c-0.1,0-0.1,0-0.2,0c-1.3,0.2-3,0.3-3.4-1c-0.4-1-1-1.8-1.8-2.4
	c-0.1,0-0.1-0.1-0.2-0.1c-0.1-0.4-0.5-0.6-0.9-0.6h0c-0.6,0-1,0.4-1,1c0,0.8,0.8,1.3,1.1,1.5c0.4,0.4,0.7,0.9,0.9,1.4
	c0.4,1,1.4,2.6,4.5,2.4c0,0,0,0.1,0,0.1l0,0.3c0,0.6,0.4,1,1,1s1-0.4,1-1l0-0.3C10.1,21.5,10.1,21.2,10.1,20.5z M20.7,5.4
	c0-0.1,0.1-0.3,0.1-0.4c0.2-1.1,0-2.3-0.4-3.3c-0.1-0.3-0.3-0.5-0.6-0.6c-0.4-0.1-1.7-0.4-4.2,1.2c-2.1-0.5-4.3-0.5-6.4,0
	C6.8,0.8,5.5,1,5.1,1.1C4.8,1.2,4.6,1.4,4.5,1.7C4,2.7,3.9,3.9,4.1,5c0,0.1,0.1,0.2,0.1,0.4C3.3,6.5,2.9,7.8,2.9,9.2
	c0,0.3,0,0.6,0,0.9c0.3,4.6,3.3,6,5.4,6.5c0,0.1-0.1,0.3-0.1,0.4c-0.1,0.5,0.2,1.1,0.7,1.2c0.5,0.1,1.1-0.2,1.2-0.7
	c0.1-0.3,0.2-0.6,0.5-0.9c0.4-0.4,0.5-1,0.1-1.4c-0.2-0.2-0.4-0.3-0.6-0.3c-3.5-0.4-5-1.8-5.2-4.9c0-0.2,0-0.5,0-0.7
	c0-1,0.3-1.9,0.9-2.7C5.9,6.4,5.9,6.3,6,6.3c0.2-0.3,0.3-0.7,0.2-1C6.1,5.1,6.1,4.9,6,4.7C6,4.1,6,3.6,6.1,3.1
	C7,3.3,7.8,3.7,8.5,4.2c0.2,0.2,0.5,0.2,0.8,0.1c2-0.5,4.2-0.5,6.2,0c0.3,0.1,0.6,0,0.8-0.1c0.7-0.5,1.5-0.9,2.4-1.2
	c0.1,0.5,0.2,1.1,0.1,1.6c0,0.2-0.1,0.4-0.2,0.6c-0.1,0.3-0.1,0.7,0.2,1C19,6.3,19,6.4,19.1,6.5C19.7,7.3,20,8.2,20,9.2
	c0,0.3,0,0.5,0,0.8c-0.2,3.1-1.7,4.5-5.2,4.9c-0.5,0.1-0.9,0.6-0.9,1.1c0,0.2,0.1,0.5,0.3,0.6c0.2,0.2,0.4,0.6,0.5,0.9
	c0.1,0.3,0.1,0.5,0.1,0.8v2.3c0,0.6,0,1.1,0,1.4c0,0.6,0.4,1,1,1c0.6,0,1-0.4,1-1c0-0.2,0-0.7,0-1.3v-2.3c0-0.4,0-0.9-0.2-1.3
	c0-0.1-0.1-0.3-0.1-0.4c3.1-0.5,5.4-3.2,5.4-6.4c0-0.3,0-0.6,0-1C22,7.8,21.6,6.5,20.7,5.4L20.7,5.4z"/>
</svg>
