<?xml version="1.0" encoding="utf-8"?>
<!-- Generator: Adobe Illustrator 26.0.3, SVG Export Plug-In . SVG Version: 6.00 Build 0)  -->
<svg version="1.1" id="Capa_1" xmlns="http://www.w3.org/2000/svg" xmlns:xlink="http://www.w3.org/1999/xlink" x="0px" y="0px"
	 viewBox="0 0 24 24" style="enable-background:new 0 0 24 24;" xml:space="preserve">
<style type="text/css">
	.st0{fill:#FAFAFF;}
</style>
<path class="st0" d="M17.5,9c-0.9,0-1.8,0.2-2.6,0.6C14.8,9.3,14.4,9,14,9h-4c-0.6,0-1,0.4-1,1c0,0,0,0,0,0v12c0,0.6,0.4,1,1,1
	c0,0,0,0,0,0h4c0.6,0,1-0.4,1-1c0,0,0,0,0,0v-5.5c0-0.6,0.4-1,1-1c0.6,0,1,0.4,1,1V22c0,0.6,0.4,1,1,1c0,0,0,0,0,0h4
	c0.6,0,1-0.4,1-1c0,0,0,0,0,0v-7.5C23,11.5,20.5,9,17.5,9z M21,21h-2v-4.5c0-1.7-1.3-3-3-3s-3,1.3-3,3V21h-2V11h2v0.7
	c0,0.6,0.4,1,1,1c0.3,0,0.6-0.1,0.8-0.4c1.2-1.5,3.4-1.8,4.9-0.6c0.8,0.7,1.3,1.7,1.3,2.8V21z M7,9H3c-0.6,0-1,0.4-1,1c0,0,0,0,0,0
	v12c0,0.6,0.4,1,1,1c0,0,0,0,0,0h4c0.6,0,1-0.4,1-1c0,0,0,0,0,0V10C8,9.4,7.6,9,7,9C7,9,7,9,7,9z M6,21H4V11h2V21z M5,1.5
	c-1.8-0.1-3.3,1.3-3.4,3C1.5,6.4,2.8,7.9,4.6,8C4.7,8,4.8,8,5,8h0c1.8,0.1,3.3-1.3,3.4-3s-1.3-3.3-3-3.4C5.3,1.5,5.1,1.5,5,1.5
	L5,1.5z M5,6L5,6C4.3,6.1,3.7,5.6,3.6,4.9c0-0.1,0-0.1,0-0.2C3.6,4,4.1,3.5,5,3.5c0.7-0.1,1.3,0.4,1.4,1.1c0,0.1,0,0.1,0,0.2
	C6.4,5.5,5.9,6,5,6z"/>
</svg>
