<?xml version="1.0" encoding="utf-8"?>
<!-- Generator: Adobe Illustrator 26.0.3, SVG Export Plug-In . SVG Version: 6.00 Build 0)  -->
<svg version="1.1" id="Capa_1" xmlns="http://www.w3.org/2000/svg" xmlns:xlink="http://www.w3.org/1999/xlink" x="0px" y="0px"
	 viewBox="0 0 24 24" style="enable-background:new 0 0 24 24;" xml:space="preserve">
<style type="text/css">
	.st0{fill:#FAFAFF;}
</style>
<path class="st0" d="M8,21H4c-0.6,0-1-0.4-1-1v-4c0-0.6-0.4-1-1-1s-1,0.4-1,1v4c0,1.7,1.3,3,3,3h4c0.6,0,1-0.4,1-1S8.6,21,8,21z
	 M22,15c-0.6,0-1,0.4-1,1v4c0,0.6-0.4,1-1,1h-4c-0.6,0-1,0.4-1,1s0.4,1,1,1h4c1.7,0,3-1.3,3-3v-4C23,15.4,22.6,15,22,15z M20,1h-4
	c-0.6,0-1,0.4-1,1s0.4,1,1,1h4c0.6,0,1,0.4,1,1v4c0,0.6,0.4,1,1,1s1-0.4,1-1V4C23,2.3,21.7,1,20,1z M2,9c0.6,0,1-0.4,1-1V4
	c0-0.6,0.4-1,1-1h4c0.6,0,1-0.4,1-1S8.6,1,8,1H4C2.3,1,1,2.3,1,4v4C1,8.6,1.4,9,2,9z M10,5H6C5.4,5,5,5.4,5,6v4c0,0.6,0.4,1,1,1h4
	c0.6,0,1-0.4,1-1V6C11,5.4,10.6,5,10,5z M9,9H7V7h2V9z M14,11h4c0.6,0,1-0.4,1-1V6c0-0.6-0.4-1-1-1h-4c-0.6,0-1,0.4-1,1v4
	C13,10.6,13.4,11,14,11z M15,7h2v2h-2V7z M10,13H6c-0.6,0-1,0.4-1,1v4c0,0.6,0.4,1,1,1h4c0.6,0,1-0.4,1-1v-4C11,13.4,10.6,13,10,13z
	 M9,17H7v-2h2V17z M14,16c0.6,0,1-0.4,1-1c0.6,0,1-0.4,1-1s-0.4-1-1-1h-1c-0.6,0-1,0.4-1,1v1C13,15.6,13.4,16,14,16z M18,13
	c-0.6,0-1,0.4-1,1v3c-0.6,0-1,0.4-1,1s0.4,1,1,1h1c0.6,0,1-0.4,1-1v-4C19,13.4,18.6,13,18,13z M14,17c-0.6,0-1,0.4-1,1s0.4,1,1,1
	s1-0.4,1-1S14.6,17,14,17z"/>
</svg>
