<?xml version="1.0" encoding="utf-8"?>
<!-- Generator: Adobe Illustrator 26.0.3, SVG Export Plug-In . SVG Version: 6.00 Build 0)  -->
<svg version="1.1" id="Capa_1" xmlns="http://www.w3.org/2000/svg" xmlns:xlink="http://www.w3.org/1999/xlink" x="0px" y="0px"
	 viewBox="0 0 24 24" style="enable-background:new 0 0 24 24;" xml:space="preserve">
<style type="text/css">
	.st0{fill:#FAFAFF;}
</style>
<path class="st0" d="M21.6,13c-0.3-0.2-0.7-0.3-1-0.1c-1.1,0.5-2.2,0.7-3.4,0.7c-4.5,0-8.1-3.6-8.1-8.1c0-0.7,0.1-1.3,0.2-2
	c0.1-0.5-0.2-1.1-0.8-1.2c-0.2,0-0.4,0-0.5,0c-5.1,2.3-7.4,8.3-5.1,13.4s8.3,7.4,13.4,5.1c2.8-1.3,4.9-3.8,5.7-6.8
	C22.1,13.7,22,13.2,21.6,13z M12.1,19.7c-4.5,0-8.1-3.7-8.1-8.2c0-2.4,1.1-4.7,3-6.3v0.3c0,5.6,4.5,10.1,10.1,10.1
	c0.7,0,1.4-0.1,2.1-0.2C17.9,18.1,15.1,19.7,12.1,19.7L12.1,19.7z"/>
</svg>
