<?xml version="1.0" encoding="utf-8"?>
<!-- Generator: Adobe Illustrator 26.0.3, SVG Export Plug-In . SVG Version: 6.00 Build 0)  -->
<svg version="1.1" id="Capa_1" xmlns="http://www.w3.org/2000/svg" xmlns:xlink="http://www.w3.org/1999/xlink" x="0px" y="0px"
	 viewBox="0 0 24 24" style="enable-background:new 0 0 24 24;" xml:space="preserve">
<style type="text/css">
	.st0{fill:#FAFAFF;}
</style>
<path class="st0" d="M12,2C6.5,2,2,6.5,2,12c0,2.5,0.9,4.9,2.6,6.7l0,0c3.7,4.1,10.1,4.3,14.1,0.6c0.2-0.2,0.4-0.4,0.6-0.6l0,0
	c3.7-4.1,3.5-10.4-0.6-14.1C16.9,2.9,14.5,2,12,2z M12,20c-2.1,0-4.1-0.8-5.6-2.2c1.3-3.1,4.8-4.5,7.8-3.3c1.5,0.6,2.7,1.8,3.3,3.3
	C16.1,19.2,14.1,20,12,20z M10,10c0-1.1,0.9-2,2-2s2,0.9,2,2s-0.9,2-2,2S10,11.1,10,10z M18.9,16c-0.9-1.5-2.3-2.7-3.9-3.4
	c1.5-1.7,1.3-4.2-0.4-5.6S10.5,5.7,9,7.3c-1.3,1.5-1.3,3.8,0,5.3c-1.6,0.7-3,1.9-3.9,3.4C4.4,14.8,4,13.4,4,12c0-4.4,3.6-8,8-8
	s8,3.6,8,8C20,13.4,19.6,14.8,18.9,16z"/>
</svg>
